<?xml version="1.0" standalone="no"?>
<!DOCTYPE svg PUBLIC "-//W3C//DTD SVG 20010904//EN"
 "http://www.w3.org/TR/2001/REC-SVG-20010904/DTD/svg10.dtd">
<svg version="1.0" xmlns="http://www.w3.org/2000/svg"
 width="700.000000pt" height="700.000000pt" viewBox="0 0 700.000000 700.000000"
 preserveAspectRatio="xMidYMid meet">
<metadata>
Created by potrace 1.11, written by Peter Selinger 2001-2013
</metadata>
<g transform="translate(0.000000,700.000000) scale(0.100000,-0.100000)"
fill="#000000" stroke="none">
<path d="M480 6567 c-19 -6 -41 -16 -48 -22 -71 -57 -98 -109 -108 -210 -3
-39 -8 -83 -10 -100 -8 -74 -18 -335 -18 -490 1 -246 17 -478 45 -655 6 -36
13 -78 16 -95 4 -27 30 -154 37 -180 1 -5 6 -26 10 -45 27 -125 114 -368 174
-484 l37 -72 -28 -90 c-36 -115 -101 -387 -117 -489 -7 -44 -14 -87 -15 -96
-17 -89 -24 -379 -12 -514 8 -89 32 -239 48 -300 6 -22 11 -53 12 -70 2 -31 7
-29 -113 -49 -119 -19 -305 -65 -355 -88 -28 -13 -39 -39 -30 -69 12 -37 42
-37 170 -3 93 24 340 74 368 74 3 0 20 -37 38 -82 18 -46 45 -108 61 -138 15
-30 28 -58 28 -62 0 -4 -33 -17 -72 -29 -99 -29 -361 -133 -423 -167 -39 -21
-51 -33 -53 -55 -4 -34 13 -57 42 -57 12 0 78 24 146 54 124 53 336 129 396
141 22 4 33 2 37 -8 3 -7 32 -53 66 -101 34 -48 61 -91 61 -96 0 -5 -31 -24
-68 -43 -164 -82 -412 -270 -412 -312 0 -30 25 -55 53 -55 13 0 56 27 97 61
101 83 207 153 314 210 l89 47 156 -157 c241 -243 471 -426 846 -673 376 -247
672 -393 991 -488 59 -17 116 -34 126 -36 10 -2 28 -6 41 -9 214 -48 456 -53
687 -15 347 58 771 229 1109 448 413 268 835 614 1073 880 l56 63 84 -42 c106
-53 252 -149 346 -228 76 -63 108 -74 136 -45 35 34 10 74 -99 159 -76 60
-233 161 -308 199 -42 21 -80 42 -82 46 -3 5 6 21 19 37 13 15 45 61 70 101
41 62 51 72 69 66 216 -64 334 -106 481 -174 82 -37 117 -37 130 3 13 37 1 56
-55 84 -74 37 -339 139 -424 163 -44 13 -83 26 -87 29 -4 4 2 27 15 51 12 24
40 87 63 140 22 52 45 94 50 93 5 -1 29 -4 54 -7 25 -4 56 -9 70 -11 14 -3 41
-7 60 -10 19 -3 43 -8 52 -11 9 -3 25 -7 35 -9 10 -2 47 -11 83 -20 183 -47
167 -45 189 -24 42 39 25 72 -50 99 -70 26 -253 68 -391 90 -43 7 -78 16 -78
19 0 3 9 40 19 81 10 41 22 95 25 120 3 25 8 56 11 70 16 76 23 390 11 480 -2
19 -7 62 -11 95 -8 79 -51 298 -71 366 -8 30 -39 125 -67 211 l-51 157 36 73
c97 196 177 507 204 788 3 30 7 66 10 80 24 147 23 723 -2 1010 -20 236 -24
258 -62 313 -49 73 -147 110 -232 87 -28 -8 -165 -91 -370 -227 -179 -118
-488 -322 -687 -454 l-362 -239 -78 31 c-244 98 -575 183 -832 214 -30 4 -63
8 -73 10 -93 18 -505 25 -673 12 -87 -7 -108 -10 -198 -22 -280 -39 -586 -119
-805 -212 l-83 -36 -52 33 c-29 18 -65 40 -82 50 -16 9 -81 49 -143 89 -62 39
-117 71 -122 71 -6 0 -10 5 -10 10 0 6 -4 10 -9 10 -7 0 -228 134 -541 329 -8
6 -67 42 -130 81 -63 39 -169 105 -235 146 -66 41 -136 81 -155 90 -44 21
-115 25 -160 11z m720 -870 c239 -148 449 -277 465 -287 17 -10 93 -57 170
-105 235 -147 253 -151 415 -84 55 23 102 40 103 38 126 -196 322 -456 350
-465 63 -20 190 194 241 405 22 92 27 174 13 218 -8 22 -3 24 103 38 14 2 47
6 74 10 45 6 48 5 42 -12 -26 -66 -31 -208 -11 -341 7 -47 44 -194 55 -217 5
-11 14 -33 20 -50 31 -86 99 -165 143 -165 43 0 269 291 366 473 18 33 38 69
45 80 8 12 22 45 32 72 9 28 21 55 25 60 5 6 11 30 15 53 l7 43 46 -7 c25 -4
55 -8 66 -10 11 -2 36 -6 55 -10 40 -6 130 -24 146 -29 7 -2 7 -23 -1 -71 -13
-71 -13 -265 -1 -389 4 -38 9 -103 10 -144 4 -101 12 -104 123 -47 113 57 343
255 443 380 l44 55 61 -4 c43 -3 71 1 100 14 22 10 209 130 415 266 206 137
463 306 570 377 l195 128 5 -52 c7 -71 4 -525 -4 -613 -25 -285 -53 -444 -108
-623 l-32 -103 -55 55 c-114 111 -223 168 -257 134 -49 -49 12 -282 139 -533
60 -118 167 -405 167 -447 0 -5 -12 -1 -27 10 -46 32 -164 89 -222 106 -57 17
-138 21 -157 8 -25 -17 -34 -51 -25 -94 25 -109 102 -245 336 -588 92 -135
170 -250 172 -257 6 -16 -12 -109 -44 -221 l-26 -92 -71 -1 c-39 0 -96 -2
-126 -4 -99 -7 -194 -16 -227 -21 -18 -2 -50 -6 -70 -9 -21 -3 -69 -12 -108
-20 -38 -8 -86 -17 -105 -20 -19 -3 -71 -15 -115 -27 -44 -11 -84 -21 -90 -22
-96 -22 -316 -100 -440 -156 -125 -56 -159 -97 -118 -142 23 -25 33 -23 123
22 129 65 282 119 520 183 30 9 102 25 160 36 102 20 122 23 205 35 22 3 60 8
85 12 53 7 90 11 227 19 l103 7 -23 -49 c-12 -26 -31 -61 -41 -78 -70 -112
-61 -103 -108 -98 -115 12 -405 6 -553 -12 -167 -21 -469 -90 -587 -135 -54
-20 -58 -24 -58 -54 0 -37 15 -56 45 -56 11 0 72 15 135 34 124 36 315 80 395
91 28 4 61 8 75 10 123 16 383 25 472 15 l47 -5 -61 -73 -61 -73 -61 6 c-33 4
-70 9 -81 11 -34 7 -327 7 -385 -1 -30 -3 -73 -8 -95 -11 -79 -9 -175 -26
-288 -50 -37 -8 -70 -14 -72 -14 -2 0 -11 -7 -19 -16 -24 -23 -20 -61 9 -80
21 -14 32 -14 72 -5 27 6 59 14 73 16 14 3 36 7 50 10 32 7 55 11 105 19 40 7
65 10 165 22 99 12 416 8 425 -6 9 -15 -275 -264 -475 -416 -371 -281 -593
-417 -860 -526 -449 -184 -785 -209 -1169 -86 -218 69 -369 139 -656 302 -53
30 -328 213 -428 285 -106 76 -332 255 -387 307 -25 23 -65 61 -89 83 -24 23
-42 43 -39 46 24 24 410 24 548 0 14 -2 52 -9 85 -14 59 -10 141 -25 200 -36
17 -3 38 -8 48 -11 27 -8 67 22 67 51 0 19 -22 55 -34 55 -2 0 -57 11 -123 25
-66 13 -141 27 -169 30 -27 3 -62 8 -78 11 -84 14 -418 22 -471 10 -11 -2 -49
-7 -85 -11 -36 -4 -68 -9 -72 -11 -8 -5 -37 24 -93 97 l-44 56 62 3 c203 10
535 -11 647 -40 19 -5 52 -12 74 -16 21 -3 95 -22 165 -41 228 -64 234 -65
250 -21 10 27 -1 53 -31 69 -58 31 -357 105 -538 133 -173 27 -459 37 -632 23
l-68 -6 -39 67 c-21 37 -48 89 -60 116 l-21 49 124 -7 c133 -8 144 -9 276 -27
343 -46 695 -145 920 -259 91 -45 96 -46 122 -23 28 25 22 59 -14 87 -132 99
-680 269 -973 300 -33 4 -67 9 -76 12 -23 6 -103 12 -269 20 -105 4 -148 10
-156 20 -15 19 -60 191 -75 286 -11 73 -10 78 11 113 12 19 27 41 34 48 21 21
250 368 304 460 29 48 63 115 77 148 57 135 41 189 -56 189 -60 0 -119 -18
-225 -70 -43 -21 -80 -37 -81 -36 -4 4 28 122 64 231 19 61 36 117 38 125 2 8
19 49 38 90 136 294 182 494 118 515 -45 14 -135 -36 -241 -133 -30 -28 -55
-50 -56 -49 -10 13 -68 195 -87 272 -70 281 -99 532 -101 885 -1 189 2 232 18
223 6 -4 207 -128 446 -276z"/>
<path d="M1935 3823 c-54 -7 -185 -42 -220 -59 -40 -19 -45 -31 -41 -104 23
-364 219 -606 549 -676 156 -33 420 -5 448 48 11 20 8 161 -5 246 -9 58 -63
201 -97 258 -81 134 -228 238 -387 275 -49 11 -196 18 -247 12z m465 -182 c62
-30 89 -128 51 -188 -59 -94 -190 -91 -238 6 -61 123 62 241 187 182z"/>
<path d="M4900 3820 c-251 -45 -432 -222 -500 -490 -28 -109 -36 -264 -16
-295 33 -50 278 -78 433 -50 267 48 463 228 529 484 21 86 23 97 31 178 8 96
-3 113 -94 141 -37 11 -91 25 -120 30 -66 12 -205 13 -263 2z m359 -179 c35
-19 63 -69 63 -114 2 -120 -124 -184 -219 -111 -39 29 -53 59 -53 111 0 44 39
99 84 119 33 14 93 12 125 -5z"/>
<path d="M3410 2433 c-264 -10 -356 -62 -367 -207 -5 -57 -2 -72 23 -123 34
-71 137 -174 224 -225 35 -21 67 -39 72 -40 19 -7 -20 -87 -67 -134 -131 -135
-382 -135 -558 0 -60 46 -89 57 -127 50 -32 -7 -79 -48 -81 -70 -1 -8 -2 -24
-3 -36 -4 -40 23 -77 87 -124 139 -103 253 -139 432 -139 99 1 159 14 245 53
47 21 140 87 165 116 l20 23 48 -43 c181 -163 442 -196 692 -89 65 28 177 107
197 140 39 64 13 142 -56 165 -40 13 -72 3 -125 -39 -218 -172 -547 -130 -635
81 l-15 36 63 37 c82 48 174 136 226 216 47 73 53 131 20 207 -39 88 -126 128
-300 138 -47 3 -92 6 -100 7 -8 1 -44 1 -80 0z m318 -139 c50 -19 72 -46 72
-92 0 -93 -222 -287 -325 -285 -85 3 -215 91 -294 202 -22 31 -31 55 -31 83 0
85 40 108 210 115 63 3 116 6 117 7 9 7 217 -17 251 -30z"/>
<path d="M2598 2226 c-17 -12 -23 -33 -20 -67 2 -16 38 -36 60 -33 6 1 16 2
20 3 5 0 14 12 20 26 13 28 -2 75 -24 75 -7 0 -18 2 -26 5 -7 2 -21 -2 -30 -9z"/>
<path d="M4313 2225 c-43 -30 -28 -90 25 -100 27 -5 62 26 62 53 0 43 -52 72
-87 47z"/>
<path d="M2452 1944 c-51 -35 -8 -117 50 -95 26 10 38 29 38 61 0 36 -55 58
-88 34z"/>
<path d="M2764 1935 c-27 -27 -23 -59 11 -81 47 -31 103 24 75 75 -6 12 -14
21 -18 22 -4 0 -15 2 -26 4 -10 2 -29 -7 -42 -20z"/>
<path d="M4159 1939 c-15 -15 -19 -28 -14 -47 8 -32 13 -38 42 -46 30 -9 74
33 66 63 -11 44 -63 61 -94 30z"/>
<path d="M4492 1950 c-44 -18 -41 -83 5 -101 59 -22 103 59 51 95 -25 18 -25
18 -56 6z"/>
</g>
</svg>
